<svg
  width="24"
  height="24"
  viewBox="0 0 24 24"
  fill="none"
  xmlns="http://www.w3.org/2000/svg"
>
  <path
    fill-rule="evenodd"
    clip-rule="evenodd"
    d="M12 15.5C13.933 15.5 15.5 13.933 15.5 12C15.5 10.067 13.933 8.5 12 8.5C10.067 8.5 8.5 10.067 8.5 12C8.5 13.933 10.067 15.5 12 15.5ZM12 17C14.7614 17 17 14.7614 17 12C17 9.23858 14.7614 7 12 7C9.23858 7 7 9.23858 7 12C7 14.7614 9.23858 17 12 17Z"
    fill="currentColor"
  />
  <path
    d="M19.632 9.402L18.5 9.2L18.2 8.1L19.1 7.1L18.4 5.8L17.2 6.2L16.3 5.3L15.2 5.6L15 4.4H13L12.8 5.6L11.7 5.3L10.8 6.2L9.8 5.8L9 7.1L9.9 8.1L9.6 9.2L8.4 9.4V10.6L9.6 10.8L9.9 11.9L9 12.9L9.8 14.2L11 13.8L11.9 14.7L13 14.4L13.2 15.6H15.2L15.4 14.4L16.5 14.7L17.4 13.8L18.4 14.2L19.2 12.9L18.3 11.9L18.6 10.8L19.8 10.6L19.632 9.402Z"
    fill="currentColor"
  />
</svg>